<mxfile host="app.diagrams.net" modified="2023-04-13T08:04:21.517Z" agent="Mozilla/5.0 (Windows NT 10.0; Win64; x64) AppleWebKit/537.36 (KHTML, like Gecko) Chrome/111.0.0.0 Safari/537.36" etag="bgnNmqxpBHIGd-wpa0n0" version="21.1.6" type="github" pages="2">
  <diagram name="第 1 页" id="CaCOqWdzl9Q6aZWbn9JT">
    <mxGraphModel dx="954" dy="608" grid="1" gridSize="10" guides="1" tooltips="1" connect="1" arrows="1" fold="1" page="1" pageScale="1" pageWidth="1827" pageHeight="1169" math="0" shadow="0">
      <root>
        <mxCell id="0" />
        <mxCell id="1" parent="0" />
        <mxCell id="Zy9JpAl7bMvJ8zGh7pqb-44" value="" style="rounded=1;whiteSpace=wrap;html=1;fillColor=#d5e8d4;strokeColor=#82b366;" parent="1" vertex="1">
          <mxGeometry x="200" y="340" width="800" height="80" as="geometry" />
        </mxCell>
        <mxCell id="Zy9JpAl7bMvJ8zGh7pqb-45" value="&lt;b&gt;业务&lt;/b&gt;" style="text;html=1;strokeColor=none;fillColor=none;align=center;verticalAlign=middle;whiteSpace=wrap;rounded=0;" parent="1" vertex="1">
          <mxGeometry x="230" y="365" width="60" height="30" as="geometry" />
        </mxCell>
        <mxCell id="Zy9JpAl7bMvJ8zGh7pqb-46" value="订单" style="rounded=1;whiteSpace=wrap;html=1;fillColor=#ffe6cc;strokeColor=#d79b00;" parent="1" vertex="1">
          <mxGeometry x="300" y="350" width="120" height="60" as="geometry" />
        </mxCell>
        <mxCell id="Zy9JpAl7bMvJ8zGh7pqb-47" value="财务" style="rounded=1;whiteSpace=wrap;html=1;fillColor=#e1d5e7;strokeColor=#9673a6;" parent="1" vertex="1">
          <mxGeometry x="854" y="350" width="120" height="60" as="geometry" />
        </mxCell>
        <mxCell id="Zy9JpAl7bMvJ8zGh7pqb-50" value="" style="rounded=1;whiteSpace=wrap;html=1;fillColor=#dae8fc;strokeColor=#6c8ebf;" parent="1" vertex="1">
          <mxGeometry x="200" y="470" width="800" height="160" as="geometry" />
        </mxCell>
        <mxCell id="Zy9JpAl7bMvJ8zGh7pqb-51" value="&lt;b&gt;领域&lt;/b&gt;" style="text;html=1;strokeColor=none;fillColor=none;align=center;verticalAlign=middle;whiteSpace=wrap;rounded=0;" parent="1" vertex="1">
          <mxGeometry x="230" y="548.5" width="60" height="30" as="geometry" />
        </mxCell>
        <mxCell id="Zy9JpAl7bMvJ8zGh7pqb-59" value="工单" style="rounded=1;whiteSpace=wrap;html=1;fillColor=#B9E0A5;fontColor=#ffffff;strokeColor=#2D7600;" parent="1" vertex="1">
          <mxGeometry x="581" y="350" width="120" height="60" as="geometry" />
        </mxCell>
        <mxCell id="Zy9JpAl7bMvJ8zGh7pqb-60" value="" style="rounded=1;whiteSpace=wrap;html=1;fillColor=#dae8fc;strokeColor=#6c8ebf;" parent="1" vertex="1">
          <mxGeometry x="200" y="680" width="800" height="136" as="geometry" />
        </mxCell>
        <mxCell id="Zy9JpAl7bMvJ8zGh7pqb-61" value="&lt;b&gt;基础能力&lt;/b&gt;" style="text;html=1;strokeColor=none;fillColor=none;align=center;verticalAlign=middle;whiteSpace=wrap;rounded=0;" parent="1" vertex="1">
          <mxGeometry x="230" y="747.5" width="60" height="30" as="geometry" />
        </mxCell>
        <mxCell id="Zy9JpAl7bMvJ8zGh7pqb-62" value="API鉴权" style="rounded=1;whiteSpace=wrap;html=1;" parent="1" vertex="1">
          <mxGeometry x="312" y="707.5" width="80" height="40" as="geometry" />
        </mxCell>
        <mxCell id="Zy9JpAl7bMvJ8zGh7pqb-63" value="状态拉取" style="rounded=1;whiteSpace=wrap;html=1;fillColor=#fff2cc;strokeColor=#d6b656;" parent="1" vertex="1">
          <mxGeometry x="410" y="707.5" width="80" height="40" as="geometry" />
        </mxCell>
        <mxCell id="Zy9JpAl7bMvJ8zGh7pqb-64" value="推送" style="rounded=1;whiteSpace=wrap;html=1;fillColor=#fff2cc;strokeColor=#d6b656;" parent="1" vertex="1">
          <mxGeometry x="508" y="707.5" width="80" height="40" as="geometry" />
        </mxCell>
        <mxCell id="Zy9JpAl7bMvJ8zGh7pqb-70" value="短信" style="rounded=1;whiteSpace=wrap;html=1;" parent="1" vertex="1">
          <mxGeometry x="609" y="707.5" width="80" height="40" as="geometry" />
        </mxCell>
        <mxCell id="Zy9JpAl7bMvJ8zGh7pqb-73" value="任务调度" style="rounded=1;whiteSpace=wrap;html=1;" parent="1" vertex="1">
          <mxGeometry x="710" y="707.5" width="80" height="40" as="geometry" />
        </mxCell>
        <mxCell id="Zy9JpAl7bMvJ8zGh7pqb-75" value="" style="rounded=1;whiteSpace=wrap;html=1;fillColor=#d5e8d4;strokeColor=#82b366;" parent="1" vertex="1">
          <mxGeometry x="200" y="870" width="800" height="95" as="geometry" />
        </mxCell>
        <mxCell id="Zy9JpAl7bMvJ8zGh7pqb-76" value="&lt;b&gt;生态平台&lt;/b&gt;" style="text;html=1;strokeColor=none;fillColor=none;align=center;verticalAlign=middle;whiteSpace=wrap;rounded=0;" parent="1" vertex="1">
          <mxGeometry x="230" y="902.5" width="60" height="30" as="geometry" />
        </mxCell>
        <mxCell id="Zy9JpAl7bMvJ8zGh7pqb-77" value="下单服务" style="rounded=1;whiteSpace=wrap;html=1;fillColor=#60a917;fontColor=#ffffff;strokeColor=#2D7600;" parent="1" vertex="1">
          <mxGeometry x="330" y="897.5" width="80" height="40" as="geometry" />
        </mxCell>
        <mxCell id="Zy9JpAl7bMvJ8zGh7pqb-78" value="工单服务" style="rounded=1;whiteSpace=wrap;html=1;fillColor=#60a917;fontColor=#ffffff;strokeColor=#2D7600;" parent="1" vertex="1">
          <mxGeometry x="450" y="897.5" width="80" height="40" as="geometry" />
        </mxCell>
        <mxCell id="Zy9JpAl7bMvJ8zGh7pqb-79" value="查询" style="rounded=1;whiteSpace=wrap;html=1;fillColor=#60a917;fontColor=#ffffff;strokeColor=#2D7600;" parent="1" vertex="1">
          <mxGeometry x="560" y="897.5" width="90" height="40" as="geometry" />
        </mxCell>
        <mxCell id="Zy9JpAl7bMvJ8zGh7pqb-80" value="推送" style="rounded=1;whiteSpace=wrap;html=1;fillColor=#60a917;fontColor=#ffffff;strokeColor=#2D7600;" parent="1" vertex="1">
          <mxGeometry x="674" y="897.5" width="90" height="40" as="geometry" />
        </mxCell>
        <mxCell id="Zy9JpAl7bMvJ8zGh7pqb-81" value="分布式锁" style="rounded=1;whiteSpace=wrap;html=1;" parent="1" vertex="1">
          <mxGeometry x="808" y="707.5" width="80" height="40" as="geometry" />
        </mxCell>
        <mxCell id="Zy9JpAl7bMvJ8zGh7pqb-82" value="分布式事务" style="rounded=1;whiteSpace=wrap;html=1;" parent="1" vertex="1">
          <mxGeometry x="905" y="707.5" width="80" height="40" as="geometry" />
        </mxCell>
        <mxCell id="Zy9JpAl7bMvJ8zGh7pqb-83" value="日志" style="rounded=1;whiteSpace=wrap;html=1;" parent="1" vertex="1">
          <mxGeometry x="312" y="766" width="80" height="40" as="geometry" />
        </mxCell>
        <mxCell id="Zy9JpAl7bMvJ8zGh7pqb-84" value="轨迹" style="rounded=1;whiteSpace=wrap;html=1;fillColor=#fff2cc;strokeColor=#d6b656;" parent="1" vertex="1">
          <mxGeometry x="410" y="766" width="80" height="40" as="geometry" />
        </mxCell>
        <mxCell id="Zy9JpAl7bMvJ8zGh7pqb-85" value="计费" style="rounded=1;whiteSpace=wrap;html=1;fillColor=#fff2cc;strokeColor=#d6b656;" parent="1" vertex="1">
          <mxGeometry x="508" y="765" width="80" height="40" as="geometry" />
        </mxCell>
        <mxCell id="Zy9JpAl7bMvJ8zGh7pqb-86" value="错误码" style="rounded=1;whiteSpace=wrap;html=1;" parent="1" vertex="1">
          <mxGeometry x="606" y="766" width="80" height="40" as="geometry" />
        </mxCell>
        <mxCell id="Zy9JpAl7bMvJ8zGh7pqb-87" value="支付" style="rounded=1;whiteSpace=wrap;html=1;" parent="1" vertex="1">
          <mxGeometry x="710" y="766" width="80" height="40" as="geometry" />
        </mxCell>
        <mxCell id="Zy9JpAl7bMvJ8zGh7pqb-88" value="理赔" style="rounded=1;whiteSpace=wrap;html=1;fillColor=#dae8fc;strokeColor=#6c8ebf;" parent="1" vertex="1">
          <mxGeometry x="716" y="350" width="120" height="60" as="geometry" />
        </mxCell>
        <mxCell id="Zy9JpAl7bMvJ8zGh7pqb-89" value="客户" style="rounded=1;whiteSpace=wrap;html=1;fillColor=#fff2cc;strokeColor=#d6b656;" parent="1" vertex="1">
          <mxGeometry x="443" y="350" width="120" height="60" as="geometry" />
        </mxCell>
        <mxCell id="2Fg_yYZi2FJCjoJCttOx-1" value="智能调度2.0" style="rounded=1;whiteSpace=wrap;html=1;fillColor=#ffe6cc;strokeColor=#d79b00;" vertex="1" parent="1">
          <mxGeometry x="310" y="488.5" width="70" height="31.5" as="geometry" />
        </mxCell>
        <mxCell id="2Fg_yYZi2FJCjoJCttOx-2" value="人工调度" style="rounded=1;whiteSpace=wrap;html=1;fillColor=#ffe6cc;strokeColor=#d79b00;" vertex="1" parent="1">
          <mxGeometry x="310" y="530" width="70" height="30" as="geometry" />
        </mxCell>
        <mxCell id="2Fg_yYZi2FJCjoJCttOx-3" value="重试策略" style="rounded=1;whiteSpace=wrap;html=1;fillColor=#ffe6cc;strokeColor=#d79b00;" vertex="1" parent="1">
          <mxGeometry x="392" y="488.5" width="60" height="31.5" as="geometry" />
        </mxCell>
        <mxCell id="2Fg_yYZi2FJCjoJCttOx-4" value="客户管理" style="rounded=1;whiteSpace=wrap;html=1;fillColor=#fff2cc;strokeColor=#d6b656;" vertex="1" parent="1">
          <mxGeometry x="581" y="488.5" width="120" height="60" as="geometry" />
        </mxCell>
        <mxCell id="2Fg_yYZi2FJCjoJCttOx-5" value="业务配置" style="rounded=1;whiteSpace=wrap;html=1;fillColor=#fff2cc;strokeColor=#d6b656;" vertex="1" parent="1">
          <mxGeometry x="581" y="560" width="120" height="60" as="geometry" />
        </mxCell>
      </root>
    </mxGraphModel>
  </diagram>
  <diagram id="IMJcDCzsoVJtXuzoLXPz" name="第 2 页">
    <mxGraphModel dx="954" dy="608" grid="1" gridSize="10" guides="1" tooltips="1" connect="1" arrows="1" fold="1" page="1" pageScale="1" pageWidth="2027" pageHeight="1569" math="0" shadow="0">
      <root>
        <mxCell id="0" />
        <mxCell id="1" parent="0" />
      </root>
    </mxGraphModel>
  </diagram>
</mxfile>
